<svg xmlns="http://www.w3.org/2000/svg" viewBox="0 0 1000 750" width="1000" height="750">
  <style>
    text { font-family: 'Helvetica Neue', Helvetica, Arial, sans-serif; }
  </style>
  <defs>
    <marker id="arrow-blue" markerWidth="10" markerHeight="7" refX="9" refY="3.5" orient="auto">
      <polygon points="0 0, 10 3.5, 0 7" fill="#2563eb"/>
    </marker>
    <marker id="arrow-red" markerWidth="10" markerHeight="7" refX="9" refY="3.5" orient="auto">
      <polygon points="0 0, 10 3.5, 0 7" fill="#dc2626"/>
    </marker>
    <marker id="arrow-purple" markerWidth="10" markerHeight="7" refX="9" refY="3.5" orient="auto">
      <polygon points="0 0, 10 3.5, 0 7" fill="#9333ea"/>
    </marker>
    <marker id="arrow-green" markerWidth="10" markerHeight="7" refX="9" refY="3.5" orient="auto">
      <polygon points="0 0, 10 3.5, 0 7" fill="#10b981"/>
    </marker>
    <marker id="arrow-gray" markerWidth="10" markerHeight="7" refX="9" refY="3.5" orient="auto">
      <polygon points="0 0, 10 3.5, 0 7" fill="#6b7280"/>
    </marker>
    <marker id="arrow-orange" markerWidth="10" markerHeight="7" refX="9" refY="3.5" orient="auto">
      <polygon points="0 0, 10 3.5, 0 7" fill="#d97706"/>
    </marker>
    <marker id="arrow-dark" markerWidth="10" markerHeight="7" refX="9" refY="3.5" orient="auto">
      <polygon points="0 0, 10 3.5, 0 7" fill="#4b5563"/>
    </marker>
  </defs>
  <rect width="1000" height="750" fill="#f8fafc"/>
  <text x="500" y="30" fill="#111827" font-size="20" font-weight="600" text-anchor="middle">InsureVN Unified Master Architecture</text>
  <rect x="420" y="40" width="160" height="40" rx="20" fill="#ffffff" stroke="#d1d5db" stroke-width="1.5"/>
  <text x="500" y="65" fill="#111827" font-size="14" font-weight="600" text-anchor="middle">User / Scenario</text>
  <path d="M500,80 L500,110" fill="none" stroke="#9333ea" stroke-width="1.5" stroke-dasharray="none" marker-end="url(#arrow-purple)"/>
  <rect x="400" y="110" width="200" height="50" rx="8" fill="#f3e8ff" stroke="#d8b4fe" stroke-width="1.5"/>
  <text x="500" y="135" fill="#7e22ce" font-size="14" font-weight="bold" text-anchor="middle">SupervisorAgent</text>
  <text x="500" y="150" fill="#9333ea" font-size="11" font-weight="400" text-anchor="middle">Intent &amp; Routing</text>
  <path d="M450,160 L450,180 L210,180 L210,200" fill="none" stroke="#9333ea" stroke-width="1.5" stroke-dasharray="none" marker-end="url(#arrow-purple)"/>
  <path d="M500,160 L500,200" fill="none" stroke="#9333ea" stroke-width="1.5" stroke-dasharray="none" marker-end="url(#arrow-purple)"/>
  <path d="M550,160 L550,180 L780,180 L780,200" fill="none" stroke="#9333ea" stroke-width="1.5" stroke-dasharray="none" marker-end="url(#arrow-purple)"/>
  <rect x="110" y="200" width="200" height="40" rx="8" fill="#eff6ff" stroke="#3b82f6" stroke-width="1.5"/>
  <text x="210" y="225" fill="#1e40af" font-size="13" font-weight="600" text-anchor="middle">Fast Lane (Q&amp;A)</text>
  <rect x="400" y="200" width="200" height="40" rx="8" fill="#ecfdf5" stroke="#10b981" stroke-width="1.5"/>
  <text x="500" y="225" fill="#065f46" font-size="13" font-weight="600" text-anchor="middle">Verified Lane (Advisor)</text>
  <rect x="680" y="200" width="200" height="40" rx="8" fill="#fef2f2" stroke="#ef4444" stroke-width="1.5"/>
  <text x="780" y="225" fill="#991b1b" font-size="13" font-weight="600" text-anchor="middle">High-Risk Lane (Claim)</text>
  <path d="M210,240 L210,290" fill="none" stroke="#3b82f6" stroke-width="1.5" stroke-dasharray="none" marker-end="url(#arrow-blue)"/>
  <path d="M500,240 L500,255 L210,255 L210,290" fill="none" stroke="#10b981" stroke-width="1.5" stroke-dasharray="none" marker-end="url(#arrow-green)"/>
  <path d="M500,240 L500,255 L400,255 L400,290" fill="none" stroke="#10b981" stroke-width="1.5" stroke-dasharray="none" marker-end="url(#arrow-green)"/>
  <path d="M500,240 L500,255 L590,255 L590,290" fill="none" stroke="#10b981" stroke-width="1.5" stroke-dasharray="none" marker-end="url(#arrow-green)"/>
  <path d="M780,240 L780,275 L210,275 L210,290" fill="none" stroke="#ef4444" stroke-width="1.5" stroke-dasharray="none" marker-end="url(#arrow-red)"/>
  <path d="M780,240 L780,275 L400,275 L400,290" fill="none" stroke="#ef4444" stroke-width="1.5" stroke-dasharray="none" marker-end="url(#arrow-red)"/>
  <path d="M780,240 L780,275 L590,275 L590,290" fill="none" stroke="#ef4444" stroke-width="1.5" stroke-dasharray="none" marker-end="url(#arrow-red)"/>
  <path d="M780,240 L780,290" fill="none" stroke="#ef4444" stroke-width="1.5" stroke-dasharray="none" marker-end="url(#arrow-red)"/>
  <rect x="130" y="290" width="160" height="50" rx="8" fill="#eff6ff" stroke="#bfdbfe" stroke-width="1.5"/>
  <text x="210" y="315" fill="#111827" font-size="13" font-weight="600" text-anchor="middle">Ensemble Retriever</text>
  <text x="210" y="330" fill="#6b7280" font-size="10" font-weight="400" text-anchor="middle">(Vector+BM25+Graph)</text>
  <rect x="320" y="290" width="160" height="50" rx="8" fill="#eff6ff" stroke="#bfdbfe" stroke-width="1.5"/>
  <text x="400" y="315" fill="#111827" font-size="13" font-weight="600" text-anchor="middle">DatabaseAgent</text>
  <text x="400" y="330" fill="#6b7280" font-size="11" font-weight="400" text-anchor="middle">(SQLite MCP)</text>
  <rect x="510" y="290" width="160" height="50" rx="8" fill="#eff6ff" stroke="#bfdbfe" stroke-width="1.5"/>
  <text x="590" y="315" fill="#111827" font-size="13" font-weight="600" text-anchor="middle">Profile Store</text>
  <text x="590" y="330" fill="#6b7280" font-size="11" font-weight="400" text-anchor="middle">(Synthetic Data)</text>
  <rect x="700" y="290" width="160" height="50" rx="8" fill="#eff6ff" stroke="#bfdbfe" stroke-width="1.5"/>
  <text x="780" y="315" fill="#111827" font-size="12" font-weight="600" text-anchor="middle">OCR DocumentAgent</text>
  <text x="780" y="330" fill="#6b7280" font-size="11" font-weight="400" text-anchor="middle">(User Evidence)</text>
  <path d="M210,340 L210,360 L390,360 L390,380" fill="none" stroke="#3b82f6" stroke-width="1.5" stroke-dasharray="none" marker-end="url(#arrow-blue)"/>
  <path d="M400,340 L400,380" fill="none" stroke="#6b7280" stroke-width="1.5" stroke-dasharray="none" marker-end="url(#arrow-gray)"/>
  <path d="M590,340 L590,380" fill="none" stroke="#6b7280" stroke-width="1.5" stroke-dasharray="none" marker-end="url(#arrow-gray)"/>
  <path d="M780,340 L780,360 L610,360 L610,380" fill="none" stroke="#6b7280" stroke-width="1.5" stroke-dasharray="none" marker-end="url(#arrow-gray)"/>
  <rect x="380" y="380" width="240" height="30" rx="15" fill="#ffffff" stroke="#d1d5db" stroke-width="1.5"/>
  <text x="500" y="400" fill="#111827" font-size="13" font-weight="600" text-anchor="middle">Merge &amp; Rerank Evidence</text>
  <path d="M450,410 L450,440 L210,440 L210,460" fill="none" stroke="#3b82f6" stroke-width="1.5" stroke-dasharray="none" marker-end="url(#arrow-blue)"/>
  <path d="M500,410 L500,460" fill="none" stroke="#10b981" stroke-width="1.5" stroke-dasharray="none" marker-end="url(#arrow-green)"/>
  <path d="M550,410 L550,440 L780,440 L780,460" fill="none" stroke="#ef4444" stroke-width="1.5" stroke-dasharray="none" marker-end="url(#arrow-red)"/>
  <rect x="110" y="460" width="200" height="50" rx="8" fill="#eff6ff" stroke="#3b82f6" stroke-width="1.5"/>
  <text x="210" y="485" fill="#1e40af" font-size="14" font-weight="600" text-anchor="middle">PolicyAgent</text>
  <text x="210" y="500" fill="#3b82f6" font-size="11" font-weight="400" text-anchor="middle">Explain &amp; Quote</text>
  <rect x="400" y="460" width="200" height="50" rx="8" fill="#ecfdf5" stroke="#10b981" stroke-width="1.5"/>
  <text x="500" y="485" fill="#065f46" font-size="14" font-weight="600" text-anchor="middle">ComparisonAdvisorAgent</text>
  <text x="500" y="500" fill="#059669" font-size="11" font-weight="400" text-anchor="middle">Recommend &amp; Compare</text>
  <rect x="680" y="460" width="200" height="50" rx="8" fill="#fef2f2" stroke="#ef4444" stroke-width="1.5"/>
  <text x="780" y="485" fill="#991b1b" font-size="14" font-weight="600" text-anchor="middle">ClaimAgent</text>
  <text x="780" y="500" fill="#dc2626" font-size="11" font-weight="400" text-anchor="middle">Evaluate &amp; Payout</text>
  <rect x="890" y="460" width="90" height="25" rx="8" fill="#fef2f2" stroke="#fecaca" stroke-width="1.5"/>
  <text x="935" y="477" fill="#991b1b" font-size="11" font-weight="400" text-anchor="middle">Validation</text>
  <path d="M880,468 L890,468" fill="none" stroke="#991b1b" stroke-width="1.5" stroke-dasharray="none" marker-end="url(#arrow-red)"/>
  <path d="M890,477 L880,477" fill="none" stroke="#991b1b" stroke-width="1.5" stroke-dasharray="4,2" marker-end="url(#arrow-red)"/>
  <rect x="890" y="490" width="90" height="25" rx="8" fill="#fef2f2" stroke="#fecaca" stroke-width="1.5"/>
  <text x="935" y="507" fill="#991b1b" font-size="11" font-weight="400" text-anchor="middle">Calculation</text>
  <path d="M880,502 L890,502" fill="none" stroke="#991b1b" stroke-width="1.5" stroke-dasharray="none" marker-end="url(#arrow-red)"/>
  <path d="M210,510 L210,550 L450,550 L450,570" fill="none" stroke="#d97706" stroke-width="1.5" stroke-dasharray="none" marker-end="url(#arrow-orange)"/>
  <path d="M500,510 L500,570" fill="none" stroke="#d97706" stroke-width="1.5" stroke-dasharray="none" marker-end="url(#arrow-orange)"/>
  <path d="M780,510 L780,550 L550,550 L550,570" fill="none" stroke="#d97706" stroke-width="1.5" stroke-dasharray="none" marker-end="url(#arrow-orange)"/>
  <rect x="400" y="570" width="200" height="50" rx="8" fill="#f3e8ff" stroke="#d8b4fe" stroke-width="1.5"/>
  <text x="500" y="595" fill="#7e22ce" font-size="14" font-weight="bold" text-anchor="middle">VerifierAgent</text>
  <text x="500" y="610" fill="#9333ea" font-size="11" font-weight="400" text-anchor="middle">Safety &amp; Compliance</text>
  <path d="M450,620 L450,650 L360,650 L360,670" fill="none" stroke="#9333ea" stroke-width="1.5" stroke-dasharray="none" marker-end="url(#arrow-purple)"/>
  <path d="M550,620 L550,650 L640,650 L640,670" fill="none" stroke="#9333ea" stroke-width="1.5" stroke-dasharray="none" marker-end="url(#arrow-purple)"/>
  <rect x="260" y="670" width="200" height="50" rx="10" fill="#ffffff" stroke="#9ca3af" stroke-width="1.5"/>
  <text x="360" y="695" fill="#111827" font-size="13" font-weight="600" text-anchor="middle">Customer Confirm</text>
  <rect x="540" y="670" width="200" height="50" rx="10" fill="#ffffff" stroke="#9ca3af" stroke-width="1.5"/>
  <text x="640" y="695" fill="#111827" font-size="13" font-weight="600" text-anchor="middle">Employee Approve</text>
  <path d="M460,695 L540,695" fill="none" stroke="#6b7280" stroke-width="1.5" stroke-dasharray="none" marker-end="url(#arrow-gray)"/>
</svg>