<svg xmlns="http://www.w3.org/2000/svg" viewBox="0 0 1400 950" width="1400" height="950">
  <style>
    text { font-family: 'Helvetica Neue', Helvetica, Arial, 'PingFang SC', 'Microsoft YaHei', 'Microsoft JhengHei', 'SimHei', sans-serif; letter-spacing: 0; }
    .title { font-size: 28px; font-weight: 700; fill: #111827; }
    .subtitle { font-size: 13px; fill: #6b7280; }
    .section { font-size: 12px; font-weight: 700; fill: #374151; }
    .box-title { font-size: 15px; font-weight: 700; fill: #111827; }
    .body { font-size: 12px; fill: #374151; }
    .small { font-size: 11px; fill: #6b7280; }
    .metric { font-size: 16px; font-weight: 700; fill: #111827; }
  </style>
  <defs>
    <marker id="arrow-blue" markerWidth="10" markerHeight="7" refX="9" refY="3.5" orient="auto" markerUnits="strokeWidth">
      <polygon points="0 0, 10 3.5, 0 7" fill="#2563eb"/>
    </marker>
    <marker id="arrow-green" markerWidth="10" markerHeight="7" refX="9" refY="3.5" orient="auto" markerUnits="strokeWidth">
      <polygon points="0 0, 10 3.5, 0 7" fill="#059669"/>
    </marker>
    <marker id="arrow-purple" markerWidth="10" markerHeight="7" refX="9" refY="3.5" orient="auto" markerUnits="strokeWidth">
      <polygon points="0 0, 10 3.5, 0 7" fill="#7c3aed"/>
    </marker>
    <marker id="arrow-orange" markerWidth="10" markerHeight="7" refX="9" refY="3.5" orient="auto" markerUnits="strokeWidth">
      <polygon points="0 0, 10 3.5, 0 7" fill="#ea580c"/>
    </marker>
    <marker id="arrow-red" markerWidth="10" markerHeight="7" refX="9" refY="3.5" orient="auto" markerUnits="strokeWidth">
      <polygon points="0 0, 10 3.5, 0 7" fill="#dc2626"/>
    </marker>
    <marker id="arrow-gray" markerWidth="10" markerHeight="7" refX="9" refY="3.5" orient="auto" markerUnits="strokeWidth">
      <polygon points="0 0, 10 3.5, 0 7" fill="#6b7280"/>
    </marker>
    <marker id="arrow-teal" markerWidth="10" markerHeight="7" refX="9" refY="3.5" orient="auto" markerUnits="strokeWidth">
      <polygon points="0 0, 10 3.5, 0 7" fill="#0f766e"/>
    </marker>
    <filter id="soft-shadow" x="-15%" y="-15%" width="130%" height="130%">
      <feDropShadow dx="0" dy="3" stdDeviation="4" flood-color="#111827" flood-opacity="0.08"/>
    </filter>
  </defs>
  <rect width="1400" height="950" fill="#ffffff"/>
  <text x="50" y="48" text-anchor="start" class="title">Nhóm 4 — Data Pipeline Foundation</text>
  <text x="50" y="72" text-anchor="start" class="subtitle">Từ dữ liệu thô đến evidence foundation: SQLite + Qdrant + Neo4j, kèm nhánh Knowledge Graph schema -&gt; import</text>
  <text x="50" y="108" text-anchor="start" class="section">6-phase data pipeline</text>
  <rect x="50" y="130" width="180" height="135" rx="8" fill="#eff6ff" stroke="#bfdbfe" stroke-width="1.5" filter="url(#soft-shadow)"/>
  <text x="66" y="156" font-size="15" fill="#111827" text-anchor="start" font-weight="700">1. Acquisition</text>
  <text x="66" y="182" font-size="12" fill="#374151" text-anchor="start">PDF/web sources</text>
  <text x="66" y="199" font-size="12" fill="#374151" text-anchor="start">9+ insurers</text>
  <text x="66" y="216" font-size="12" fill="#374151" text-anchor="start">raw corpus</text>
  <rect x="272" y="130" width="180" height="135" rx="8" fill="#f0fdfa" stroke="#99f6e4" stroke-width="1.5" filter="url(#soft-shadow)"/>
  <text x="288" y="156" font-size="15" fill="#111827" text-anchor="start" font-weight="700">2. Preprocess &amp; QA</text>
  <text x="288" y="182" font-size="12" fill="#374151" text-anchor="start">Classify PDFs</text>
  <text x="288" y="199" font-size="12" fill="#374151" text-anchor="start">filter non-health</text>
  <text x="288" y="216" font-size="12" fill="#374151" text-anchor="start">clean source set</text>
  <rect x="494" y="130" width="180" height="135" rx="8" fill="#faf5ff" stroke="#ddd6fe" stroke-width="1.5" filter="url(#soft-shadow)"/>
  <text x="510" y="156" font-size="15" fill="#111827" text-anchor="start" font-weight="700">3. Conversion</text>
  <text x="510" y="182" font-size="12" fill="#374151" text-anchor="start">PDF -&gt; Markdown</text>
  <text x="510" y="199" font-size="12" fill="#374151" text-anchor="start">OCR/VLM where needed</text>
  <text x="510" y="216" font-size="12" fill="#374151" text-anchor="start">table-to-narrative</text>
  <rect x="716" y="130" width="180" height="135" rx="8" fill="#fff7ed" stroke="#fed7aa" stroke-width="1.5" filter="url(#soft-shadow)"/>
  <text x="732" y="156" font-size="15" fill="#111827" text-anchor="start" font-weight="700">4. Extraction</text>
  <text x="732" y="182" font-size="12" fill="#374151" text-anchor="start">JSON/table/image data</text>
  <text x="732" y="199" font-size="12" fill="#374151" text-anchor="start">Good/Trash filtering</text>
  <text x="732" y="216" font-size="12" fill="#374151" text-anchor="start">SQL key mapping</text>
  <rect x="938" y="130" width="180" height="135" rx="8" fill="#fef2f2" stroke="#fecaca" stroke-width="1.5" filter="url(#soft-shadow)"/>
  <text x="954" y="156" font-size="15" fill="#111827" text-anchor="start" font-weight="700">5. Training &amp; Eval</text>
  <text x="954" y="182" font-size="12" fill="#374151" text-anchor="start">Gemma4/Oumi sets</text>
  <text x="954" y="199" font-size="12" fill="#374151" text-anchor="start">chunking/retrieval eval</text>
  <text x="954" y="216" font-size="12" fill="#374151" text-anchor="start">benchmark gates</text>
  <rect x="1160" y="130" width="180" height="135" rx="8" fill="#f0fdf4" stroke="#bbf7d0" stroke-width="1.5" filter="url(#soft-shadow)"/>
  <text x="1176" y="156" font-size="15" fill="#111827" text-anchor="start" font-weight="700">6. Ingestion</text>
  <text x="1176" y="182" font-size="12" fill="#374151" text-anchor="start">SQLite facts</text>
  <text x="1176" y="199" font-size="12" fill="#374151" text-anchor="start">Qdrant chunks</text>
  <text x="1176" y="216" font-size="12" fill="#374151" text-anchor="start">KG import path</text>
  <path d="M 230,198 L 272,198" fill="none" stroke="#2563eb" stroke-width="2.2" stroke-linecap="round" stroke-linejoin="round" marker-end="url(#arrow-blue)"/>
  <path d="M 452,198 L 494,198" fill="none" stroke="#2563eb" stroke-width="2.2" stroke-linecap="round" stroke-linejoin="round" marker-end="url(#arrow-blue)"/>
  <path d="M 674,198 L 716,198" fill="none" stroke="#2563eb" stroke-width="2.2" stroke-linecap="round" stroke-linejoin="round" marker-end="url(#arrow-blue)"/>
  <path d="M 896,198 L 938,198" fill="none" stroke="#2563eb" stroke-width="2.2" stroke-linecap="round" stroke-linejoin="round" marker-end="url(#arrow-blue)"/>
  <path d="M 1118,198 L 1160,198" fill="none" stroke="#2563eb" stroke-width="2.2" stroke-linecap="round" stroke-linejoin="round" marker-end="url(#arrow-blue)"/>
  <text x="50" y="322" text-anchor="start" class="section">Tri-canonical evidence foundation</text>
  <rect x="50" y="345" width="1300" height="170" rx="10" fill="#f9fafb" stroke="#e5e7eb" stroke-width="1.2"/>
  <ellipse cx="225" cy="395" rx="80.0" ry="22.857142857142858" fill="#e0f2fe" stroke="#0284c7" stroke-width="1.5"/>
  <rect x="145.0" y="395" width="160" height="75" fill="#e0f2fe" stroke="none"/>
  <line x1="145.0" y1="395" x2="145.0" y2="470" stroke="#0284c7" stroke-width="1.5"/>
  <line x1="305.0" y1="395" x2="305.0" y2="470" stroke="#0284c7" stroke-width="1.5"/>
  <ellipse cx="225" cy="470" rx="80.0" ry="22.857142857142858" fill="#e0f2fe" stroke="#0284c7" stroke-width="1.5"/>
  <text x="225" y="432.5" text-anchor="middle" font-size="14" font-weight="800" fill="#111827">SQLite</text>
  <text x="225" y="449.0" text-anchor="middle" font-size="11" fill="#374151">structured facts</text>
  <ellipse cx="520" cy="395" rx="80.0" ry="22.857142857142858" fill="#ffe4e6" stroke="#dc244c" stroke-width="1.5"/>
  <rect x="440.0" y="395" width="160" height="75" fill="#ffe4e6" stroke="none"/>
  <line x1="440.0" y1="395" x2="440.0" y2="470" stroke="#dc244c" stroke-width="1.5"/>
  <line x1="600.0" y1="395" x2="600.0" y2="470" stroke="#dc244c" stroke-width="1.5"/>
  <ellipse cx="520" cy="423.5" rx="80.0" ry="22.857142857142858" fill="none" stroke="#dc244c" stroke-width="0.8" opacity="0.55"/>
  <ellipse cx="520" cy="447.5" rx="80.0" ry="22.857142857142858" fill="none" stroke="#dc244c" stroke-width="0.8" opacity="0.55"/>
  <ellipse cx="520" cy="470" rx="80.0" ry="22.857142857142858" fill="#ffe4e6" stroke="#dc244c" stroke-width="1.5"/>
  <text x="520" y="432.5" text-anchor="middle" font-size="14" font-weight="800" fill="#111827">Qdrant</text>
  <text x="520" y="449.0" text-anchor="middle" font-size="11" fill="#374151">dense + sparse chunks</text>
  <ellipse cx="815" cy="395" rx="80.0" ry="22.857142857142858" fill="#e0f2fe" stroke="#008cc1" stroke-width="1.5"/>
  <rect x="735.0" y="395" width="160" height="75" fill="#e0f2fe" stroke="none"/>
  <line x1="735.0" y1="395" x2="735.0" y2="470" stroke="#008cc1" stroke-width="1.5"/>
  <line x1="895.0" y1="395" x2="895.0" y2="470" stroke="#008cc1" stroke-width="1.5"/>
  <ellipse cx="815" cy="470" rx="80.0" ry="22.857142857142858" fill="#e0f2fe" stroke="#008cc1" stroke-width="1.5"/>
  <text x="815" y="432.5" text-anchor="middle" font-size="14" font-weight="800" fill="#111827">Neo4j</text>
  <text x="815" y="449.0" text-anchor="middle" font-size="11" fill="#374151">graph relationships</text>
  <rect x="1035" y="380" width="245" height="105" rx="8" fill="#f0fdf4" stroke="#bbf7d0" stroke-width="1.5"/>
  <text x="1051" y="406" font-size="15" fill="#111827" text-anchor="start" font-weight="700">Evidence contract</text>
  <text x="1051" y="432" font-size="12" fill="#374151" text-anchor="start">Normalize to Evidence objects</text>
  <text x="1051" y="449" font-size="12" fill="#374151" text-anchor="start">Keep citations and lineage</text>
  <text x="1051" y="466" font-size="12" fill="#374151" text-anchor="start">Flag conflicts for review</text>
  <path d="M 1250,265 L 1250,345 L 1110,345 L 1110,380" fill="none" stroke="#059669" stroke-width="2.0" stroke-linecap="round" stroke-linejoin="round" marker-end="url(#arrow-green)"/>
  <rect x="1235.5" y="305" width="53.0" height="18" rx="4" fill="#ffffff" opacity="0.96"/>
  <text x="1262" y="318" text-anchor="middle" font-size="11" font-weight="700" fill="#374151">ingest</text>
  <path d="M 305,432 L 440,432" fill="none" stroke="#059669" stroke-width="2.0" stroke-linecap="round" stroke-linejoin="round" marker-end="url(#arrow-green)"/>
  <rect x="346.8" y="406" width="46.5" height="18" rx="4" fill="#ffffff" opacity="0.96"/>
  <text x="370" y="419" text-anchor="middle" font-size="11" font-weight="700" fill="#374151">facts</text>
  <path d="M 600,432 L 735,432" fill="none" stroke="#059669" stroke-width="2.0" stroke-linecap="round" stroke-linejoin="round" marker-end="url(#arrow-green)"/>
  <rect x="639.5" y="406" width="53.0" height="18" rx="4" fill="#ffffff" opacity="0.96"/>
  <text x="666" y="419" text-anchor="middle" font-size="11" font-weight="700" fill="#374151">chunks</text>
  <path d="M 895,432 L 1035,432" fill="none" stroke="#059669" stroke-width="2.0" stroke-linecap="round" stroke-linejoin="round" marker-end="url(#arrow-green)"/>
  <rect x="941.8" y="406" width="46.5" height="18" rx="4" fill="#ffffff" opacity="0.96"/>
  <text x="965" y="419" text-anchor="middle" font-size="11" font-weight="700" fill="#374151">paths</text>
  <text x="50" y="565" text-anchor="start" class="section">Knowledge Graph sidecar</text>
  <rect x="50" y="590" width="1300" height="250" rx="10" fill="#ffffff" stroke="#e5e7eb" stroke-width="1.2"/>
  <rect x="75" y="628" width="190" height="135" rx="8" fill="#eff6ff" stroke="#bfdbfe" stroke-width="1.5" filter="url(#soft-shadow)"/>
  <text x="91" y="654" font-size="15" fill="#111827" text-anchor="start" font-weight="700">Schema</text>
  <text x="91" y="672" font-size="15" fill="#111827" text-anchor="start" font-weight="700">Discovery</text>
  <text x="91" y="698" font-size="12" fill="#374151" text-anchor="start">01_discover_schema.py</text>
  <text x="91" y="715" font-size="12" fill="#374151" text-anchor="start">Company, Plan, Benefit</text>
  <text x="91" y="732" font-size="12" fill="#374151" text-anchor="start">Exclusion, Condition</text>
  <rect x="300" y="628" width="190" height="135" rx="8" fill="#faf5ff" stroke="#ddd6fe" stroke-width="1.5" filter="url(#soft-shadow)"/>
  <text x="316" y="654" font-size="15" fill="#111827" text-anchor="start" font-weight="700">Schema</text>
  <text x="316" y="672" font-size="15" fill="#111827" text-anchor="start" font-weight="700">Canonicalization</text>
  <text x="316" y="698" font-size="12" fill="#374151" text-anchor="start">02_canonicalize_schema.py</text>
  <text x="316" y="715" font-size="12" fill="#374151" text-anchor="start">merge similar labels</text>
  <text x="316" y="732" font-size="12" fill="#374151" text-anchor="start">select valuable relations</text>
  <rect x="555" y="628" width="190" height="135" rx="8" fill="#fff7ed" stroke="#fed7aa" stroke-width="1.5" filter="url(#soft-shadow)"/>
  <text x="571" y="654" font-size="15" fill="#111827" text-anchor="start" font-weight="700">Schema Contract</text>
  <text x="571" y="672" font-size="15" fill="#111827" text-anchor="start" font-weight="700">V1</text>
  <text x="571" y="698" font-size="12" fill="#374151" text-anchor="start">03_select_schema_v1.py</text>
  <text x="571" y="715" font-size="12" fill="#374151" text-anchor="start">allowed_nodes.csv</text>
  <text x="571" y="732" font-size="12" fill="#374151" text-anchor="start">allowed_relationships.csv</text>
  <rect x="800" y="628" width="190" height="135" rx="8" fill="#f0fdfa" stroke="#99f6e4" stroke-width="1.5" filter="url(#soft-shadow)"/>
  <text x="816" y="654" font-size="15" fill="#111827" text-anchor="start" font-weight="700">Graph Build</text>
  <text x="816" y="672" font-size="15" fill="#111827" text-anchor="start" font-weight="700">&amp; QA</text>
  <text x="816" y="698" font-size="12" fill="#374151" text-anchor="start">04_build_knowledge_graph.py</text>
  <text x="816" y="715" font-size="12" fill="#374151" text-anchor="start">orphan node checks</text>
  <text x="816" y="732" font-size="12" fill="#374151" text-anchor="start">lineage validation</text>
  <rect x="1038" y="628" width="190" height="135" rx="8" fill="#f0fdf4" stroke="#bbf7d0" stroke-width="1.5" filter="url(#soft-shadow)"/>
  <text x="1054" y="654" font-size="15" fill="#111827" text-anchor="start" font-weight="700">Graph Outputs</text>
  <text x="1054" y="680" font-size="12" fill="#374151" text-anchor="start">NetworkX JSON</text>
  <text x="1054" y="697" font-size="12" fill="#374151" text-anchor="start">quality report</text>
  <text x="1054" y="714" font-size="12" fill="#374151" text-anchor="start">Neo4j / GraphRAG import</text>
  <path d="M 265,696 L 300,696" fill="none" stroke="#7c3aed" stroke-width="2.1" stroke-linecap="round" stroke-linejoin="round" marker-end="url(#arrow-purple)"/>
  <path d="M 490,696 L 555,696" fill="none" stroke="#7c3aed" stroke-width="2.1" stroke-linecap="round" stroke-linejoin="round" marker-end="url(#arrow-purple)"/>
  <path d="M 745,696 L 800,696" fill="none" stroke="#7c3aed" stroke-width="2.1" stroke-linecap="round" stroke-linejoin="round" marker-end="url(#arrow-purple)"/>
  <path d="M 990,696 L 1038,696" fill="none" stroke="#7c3aed" stroke-width="2.1" stroke-linecap="round" stroke-linejoin="round" marker-end="url(#arrow-purple)"/>
  <path d="M 806,265 L 806,300 L 30,300 L 30,696 L 75,696" fill="none" stroke="#ea580c" stroke-width="1.8" stroke-linecap="round" stroke-linejoin="round" marker-end="url(#arrow-orange)" stroke-dasharray="6,4"/>
  <rect x="83.8" y="287" width="72.5" height="18" rx="4" fill="#ffffff" opacity="0.96"/>
  <text x="120" y="300" text-anchor="middle" font-size="11" font-weight="700" fill="#374151">KG source</text>
  <path d="M 1133,628 L 1133,560 L 815,560 L 815,480" fill="none" stroke="#7c3aed" stroke-width="1.8" stroke-linecap="round" stroke-linejoin="round" marker-end="url(#arrow-purple)" stroke-dasharray="6,4"/>
  <rect x="934.0" y="547" width="92.0" height="18" rx="4" fill="#ffffff" opacity="0.96"/>
  <text x="980" y="560" text-anchor="middle" font-size="11" font-weight="700" fill="#374151">graph import</text>
  <rect x="50" y="875" width="1300" height="45" rx="8" fill="#f9fafb" stroke="#e5e7eb" stroke-width="1"/>
  <text x="72" y="904" text-anchor="start" font-size="12" fill="#374151">AI-readable takeaway: data quality gates happen before retrieval; ingestion creates three canonical stores, and KG construction turns extracted entities/relations into auditable graph evidence for multi-hop reasoning.</text>
  <g transform="translate(1040,780)">
    <rect x="-12" y="-14" width="300" height="74" rx="8" fill="#ffffff" stroke="#e5e7eb" stroke-width="1"/>
  <text x="0" y="0" text-anchor="start" font-size="11" font-weight="700" fill="#374151">Legend</text>
    <line x1="0" y1="20" x2="34" y2="20" stroke="#2563eb" stroke-width="2" marker-end="url(#arrow-blue)"/>
    <text x="44" y="24" font-size="11" fill="#6b7280">Primary data flow</text>
    <line x1="0" y1="38" x2="34" y2="38" stroke="#059669" stroke-width="2" marker-end="url(#arrow-green)"/>
    <text x="44" y="42" font-size="11" fill="#6b7280">Evidence write/link</text>
    <line x1="0" y1="56" x2="34" y2="56" stroke="#7c3aed" stroke-width="2" marker-end="url(#arrow-purple)" stroke-dasharray="6,4"/>
    <text x="44" y="60" font-size="11" fill="#6b7280">KG/control sidecar</text>
  </g>
</svg>
